<svg width="56" height="52" fill="none" xmlns="http://www.w3.org/2000/svg"><path d="M54.827 11.142a5.67 5.67 0 0 0-.016-.154c-.075-.639-.652-5.11-2.194-7.164C50.512.921 48.15.91 47.071.734 39.32 0 27.697 0 27.697 0h-.026S16.047 0 8.298.735C7.218.909 4.857.92 2.75 3.825 1.216 5.868.638 10.308.558 10.978c-.007.059-.012.112-.017.171C.474 11.896 0 17.38 0 22.875v5.538c0 5.504.485 11.008.55 11.721l.016.154c.076.639.652 5.11 2.194 7.164 2.105 2.903 4.874 2.81 6.104 3.113 4.231.535 17.595.718 18.745.733l.16.001c1.04-.004 11.929-.059 19.302-.758 1.079-.174 3.44-.186 5.546-3.09 1.542-2.053 2.119-6.524 2.194-7.163l.016-.154c.065-.713.55-6.217.55-11.721v-5.538c0-5.515-.485-11.02-.55-11.733z" fill="#000" fill-opacity=".25"/><path fill-rule="evenodd" clip-rule="evenodd" d="M40.767 18.359c-.786-1.4-1.64-1.657-3.378-1.755-1.736-.118-6.103-.166-9.885-.166-3.79 0-8.158.048-9.893.164-1.735.1-2.59.356-3.384 1.757C13.417 19.756 13 22.163 13 26.4v.014c0 4.22.417 6.645 1.227 8.028.794 1.4 1.648 1.653 3.382 1.77 1.737.102 6.105.162 9.895.162 3.782 0 8.149-.06 9.887-.16 1.738-.117 2.592-.371 3.378-1.77.818-1.383 1.231-3.808 1.231-8.028V26.403c0-4.24-.413-6.647-1.233-8.044z" fill="#F44336"/><path fill-rule="evenodd" clip-rule="evenodd" d="M23.875 31.844V20.969l9.063 5.437-9.063 5.438z" fill="#FAFAFA"/></svg>